<svg width="800" height="597" xmlns="http://www.w3.org/2000/svg">
 <g>
  <title>Layer 1</title>
  <polyline fill="none" stroke="#000" opacity="NaN" points="214,510 " id="svg_6" stroke-linecap="round"/>
  <polyline fill="none" stroke="#000" opacity="NaN" points="217,508 " id="svg_7" stroke-linecap="round"/>
  <path fill="none" stroke="#000" id="svg_25" d="m-15,526c0,-1 3.06184,-5.96313 9,-16c7.07394,-11.95657 14.37073,-20.64569 22,-29c5.26675,-5.76727 8.51607,-11.51147 18,-20c4.77115,-4.27039 13,-9 20,-13c7,-4 13.02708,-5.88177 22,-8c12.03842,-2.84189 14.03746,-3.38907 19,-4c4.09222,-0.50378 11.98524,-0.89053 19,0c8.98328,1.14044 16.0451,0.84842 23,3c9.06305,2.80377 21.91637,6.39691 40,10c16.9299,3.37323 34,5 46,5c8,0 16,0 29,0c11,0 23.20682,-0.42603 35,-5c9.1824,-3.56137 17.02039,-9.96753 25,-15c11.02835,-6.95523 24.88242,-15.88828 39,-28c11.80673,-10.12921 18.76508,-22.14752 27,-35c5.83545,-9.10754 11.73578,-16.23541 18,-23c6.7262,-7.26349 12.45938,-10.98267 20,-15c7.5921,-4.04477 11.89172,-9.19577 19,-13c7.88593,-4.22043 18.00833,-6.96347 40,-12c13.00497,-2.97839 26.02264,-4.362 35,-5c7.05328,-0.50125 16,-1 25,-1c8,0 18,0 25,0c7,0 15.01129,0.49844 26,0c11.034,-0.50052 25.12396,-2.54169 37,-6c9.10852,-2.6524 15,-6 19,-8c6,-3 7.8313,-4.22055 13,-8c8.73138,-6.38455 22.39154,-13.29773 30,-18c8.50653,-5.25732 14.46448,-9.46446 18,-13c3.53552,-3.53554 8,-7 12,-10c4,-3 8.70422,-7.4007 14,-11c6.66797,-4.53194 13.29938,-8.61409 25,-18c7.19165,-5.76892 14.76306,-10.38055 21,-14c5.802,-3.36703 10,-6 15,-9c5,-3 12.23529,-5.36955 21,-9c6.19757,-2.56712 13.87854,-6.49345 17,-7c0.98706,-0.16019 2,0 3,0c1,0 4,0 7,0c1,0 2,0 3,0l0,1" stroke-width="5"/>
  <polyline fill="none" points="625,222 624,222 " id="svg_37" stroke-linecap="round" stroke="#000" transform="rotate(-104.415 624.5 222)"/>
  <path fill="none" stroke="#000" id="svg_49" d="m-11,271c1,0 1.29289,-0.29291 2,-1c1.41421,-1.41422 3.18601,-0.69254 5,-2c2.29454,-1.65381 4.85273,-2.1731 6,-3c1.81399,-1.30746 3,-1 6,-1c3,0 7.91425,0.49081 18,2c9.93922,1.48724 18.04468,2.76138 24,4c4.03672,0.8396 9.87332,2.43036 16,4c10.83055,2.77475 21.0242,3.83737 35,6c12.02244,1.86035 24,3 34,3c7,0 13,0 20,0c8,0 18.07721,-0.81213 28,-5c18.14766,-7.65915 27.39389,-12.41644 38,-20c10.41725,-7.44855 20.49225,-15.24702 30,-22c6.36755,-4.52263 11.5517,-11.53476 21,-19c9.57773,-7.5675 16.85925,-13.16823 24,-19c8.83093,-7.21213 13.77637,-10.40894 19,-13c4.82428,-2.39297 10.59311,-5.47554 19,-7c1.9679,-0.35684 8.07748,-2.03891 14,-3c3.12143,-0.50655 7.02521,-1.88133 12,-3c4.02264,-0.90456 5.88495,-1.27431 8,-2c4.82303,-1.65482 9,-1 15,-1c7,0 13,0 16,0c4,0 8,0 13,0c9,0 15,0 21,0c5,0 8.87857,-0.49345 12,-1c3.94836,-0.64073 8.0022,-0.88487 11,-1c13.02881,-0.50037 16.07483,-1.51962 24,-3c4.05301,-0.75708 9.09662,-0.53374 15,-2c6.13806,-1.52455 13.01208,-2.91869 20,-4c6.01123,-0.93018 12.08832,-3.75238 18,-6c7.11865,-2.7065 15,-7 20,-10c5,-3 11.11957,-6.77196 17,-10c5.11145,-2.80591 9.21259,-5.67121 14,-9c5.25714,-3.65543 10.55804,-6.07764 16,-10c3.44183,-2.48071 6.88153,-6.19028 10,-8c1.93402,-1.12234 3.69342,-2.4588 5,-3c1.84778,-0.76537 2.77063,-1.25935 5,-3c4.59601,-3.58844 5.25659,-5.41886 10,-7c0.94867,-0.31623 4.18604,-2.69255 6,-4c1.14728,-0.8269 1.85272,-2.1731 3,-3c1.81396,-1.30745 4.4505,-2.45049 7,-5c2.5495,-2.54951 3.41888,-4.41886 5,-6c1.58112,-1.58114 3,-1 5,-3c1,-1 3.4588,-1.69344 4,-3c0.38269,-0.92388 1.29291,-0.29289 2,-1c0.70709,-0.70711 0.29291,-1.29289 1,-2c0.70709,-0.70711 2.0979,-0.82443 4,-2c0.85065,-0.52573 2.07611,-0.61732 3,-1c1.30658,-0.54119 0.29291,-2.29289 1,-3c1.41418,-1.41422 3.29291,-0.29289 4,-1c0.70709,-0.70711 1.29291,-0.29289 2,-1c0.70709,-0.70711 1.29291,-0.29289 2,-1c0.70709,-0.70711 1,-2 2,-2c1,0 1,-1 2,-1c1,0 1.29291,-0.29289 2,-1c0.70709,-0.70711 1,-2 2,-2c1,0 1,-1 2,-1c1,0 1,-1 2,-1l1,0l1,0" stroke-width="7"/>
  <polyline fill="none" stroke="#000" stroke-width="9" opacity="NaN" points="687,48 688,48 691,48 691,49 691,50 691,49 691,48 687,48 686,48 686,49 " id="svg_56" stroke-linecap="round"/>
  <polyline fill="none" stroke="#000" stroke-width="9" points="686,49 686,49 " id="svg_57" stroke-linecap="round"/>
  <ellipse fill="none" stroke="#000" stroke-width="9" cx="128" cy="189" id="svg_60"/>
  <path id="svg_1" d="m39,169.5" opacity="NaN" stroke="#000" fill="#fff"/>
 </g>

</svg>